<?xml version="1.0" standalone="no"?>
<!DOCTYPE svg PUBLIC "-//W3C//DTD SVG 20010904//EN"
 "http://www.w3.org/TR/2001/REC-SVG-20010904/DTD/svg10.dtd">
<svg version="1.0" xmlns="http://www.w3.org/2000/svg"
 width="301.000000pt" height="217.000000pt" viewBox="0 0 301.000000 217.000000"
 preserveAspectRatio="xMidYMid meet">

<g transform="translate(0.000000,217.000000) scale(0.100000,-0.100000)"
fill="#000000" stroke="none">
<path d="M1654 1174 c-18 -14 -18 -14 6 -3 31 14 36 19 24 19 -6 0 -19 -7 -30
-16z"/>
<path d="M1540 1119 c-36 -18 -74 -39 -86 -48 -20 -15 -19 -16 21 -16 34 0 41
3 37 17 -3 12 10 24 47 42 28 15 51 29 51 31 0 7 -1 7 -70 -26z"/>
<path d="M1415 1116 c17 -14 35 -26 40 -26 11 1 -20 27 -50 41 -11 6 -6 -1 10
-15z"/>
<path d="M2000 1107 c0 -9 -4 -17 -10 -17 -5 0 -9 -15 -9 -32 1 -20 3 -25 6
-13 2 11 9 30 15 42 6 13 8 26 5 30 -4 3 -7 -1 -7 -10z"/>
</g>
</svg>
